#!OML:ASF X:\für Bonn\!DataBase\2005_08_10_Bjorn_Final\c3d\bjorn.ASF
:FULLY-SPECIFIED
:DEGREES
171
root 0.971862 20.04 2.08192 -167.254 -2.46783 -179.498
lowerback 1.73254 0.65078 8.86532
upperback 6.18489 0.307575 -0.239532
thorax 5.60764 0.42663 -5.22789
lowerneck -10.0345 -1.79295 2.2159
upperneck 10.5111 -2.51295 -2.58199
head 4.73442 -1.33958 -1.33565
rclavicle 1.19271e-015 -7.15625e-015
rhumerus 70.407 3.21698 -61.0564
rradius 19.7638
rwrist 31.1202
rhand -13.1529 9.66634
rfingers 7.12502
rthumb 12.9458 -19.9121
lclavicle 1.19271e-015 -7.15625e-015
lhumerus 73.7558 -8.8839 59.7313
lradius 13.8315
lwrist -37.9785
lhand -29.7442 -11.6901
lfingers 7.12502
lthumb -3.07044 18.2675
rfemur -25.1994 -12.4106 18.9449
rtibia 32.48
rfoot -14.0858 12.9427
rtoes -21.6539
lfemur -23.0284 9.65569 -19.9706
ltibia 30.841
lfoot -1.80485 -13.0559
ltoes -8.94186
172
root 0.974958 20.0578 2.03799 -166.956 -2.5122 -179.488
lowerback 1.01485 0.61687 8.81706
upperback 5.87778 0.262583 -0.267493
thorax 5.67676 0.418663 -5.22874
lowerneck -10.2861 -1.79548 2.22107
upperneck 10.8549 -2.51519 -2.66522
head 4.88137 -1.34912 -1.37003
rclavicle -1.35174e-014 -2.18663e-014
rhumerus 70.4804 3.56117 -60.3794
rradius 19.9729
rwrist 30.088
rhand -12.8709 9.4922
rfingers 7.12502
rthumb 13.2176 -20.0688
lclavicle -1.35174e-014 -2.18663e-014
lhumerus 73.5899 -8.73318 59.9529
lradius 14.1273
lwrist -37.5222
lhand -29.6763 -11.885
lfingers 7.12502
lthumb -3.0049 18.0735
rfemur -25.393 -13.0519 19.0951
rtibia 32.3098
rfoot -13.3181 13.4823
rtoes -20.9876
lfemur -23.1057 10.9393 -20.1061
ltibia 30.5097
lfoot -1.02051 -14.1961
ltoes -7.32284
173
root 0.977923 20.0657 1.9958 -166.674 -2.53942 -179.464
lowerback 0.334105 0.564985 8.74363
upperback 5.5926 0.188083 -0.265148
thorax 5.74411 0.391319 -5.18584
lowerneck -10.6146 -1.77261 2.21099
upperneck 11.1791 -2.47758 -2.76752
head 5.03646 -1.34103 -1.40602
rclavicle -1.98785e-015 -2.42517e-014
rhumerus 70.6993 3.91448 -59.818
rradius 20.1208
rwrist 29.15
rhand -12.516 9.39491
rfingers 7.12502
rthumb 13.5597 -20.1435
lclavicle -1.98785e-015 -2.42517e-014
lhumerus 73.4567 -8.5065 60.1159
lradius 14.3862
lwrist -36.8851
lhand -29.7083 -11.9301
lfingers 7.12502
lthumb -3.03577 18.028
rfemur -25.5512 -13.639 19.2557
rtibia 32.1412
rfoot -12.2427 13.8451
rtoes -20.9528
lfemur -23.3015 12.5351 -20.2658
ltibia 30.3554
lfoot -0.164318 -15.6232
ltoes -5.15412
174
root 0.981292 20.0637 1.95595 -166.43 -2.55673 -179.48
lowerback -0.29364 0.486271 8.65532
upperback 5.32247 0.0812706 -0.308833
thorax 5.79345 0.346576 -5.18641
lowerneck -10.6807 -1.71874 2.31426
upperneck 11.323 -2.40846 -2.89756
head 5.09096 -1.31359 -1.46111
rclavicle 7.95139e-016 1.43125e-014
rhumerus 70.9927 4.23416 -59.4862
rradius 20.2297
rwrist 28.4246
rhand -12.0839 9.29187
rfingers 7.12502
rthumb 13.9762 -20.2183
lclavicle 7.95139e-016 1.43125e-014
lhumerus 73.3323 -8.26765 60.1705
lradius 14.6245
lwrist -36.1502
lhand -29.8428 -11.9269
lfingers 7.12502
lthumb -3.1656 18.0294
rfemur -25.624 -14.3211 19.3759
rtibia 31.9381
rfoot -10.717 14.1331
rtoes -20.3949
lfemur -23.4101 14.1826 -20.4934
ltibia 30.3714
lfoot 0.17306 -17.1498
ltoes -4.35988
